<?xml version="1.0" encoding="UTF-8" standalone="no"?>
<!-- Created with Inkscape (http://www.inkscape.org/) -->

<svg
   xmlns:dc="http://purl.org/dc/elements/1.1/"
   xmlns:cc="http://creativecommons.org/ns#"
   xmlns:rdf="http://www.w3.org/1999/02/22-rdf-syntax-ns#"
   xmlns:svg="http://www.w3.org/2000/svg"
   xmlns="http://www.w3.org/2000/svg"
   xmlns:sodipodi="http://sodipodi.sourceforge.net/DTD/sodipodi-0.dtd"
   xmlns:inkscape="http://www.inkscape.org/namespaces/inkscape"
   width="72"
   height="72"
   viewBox="0 0 108 108"
   id="svg3371"
   version="1.1"
   sodipodi:docname="ic_launcher.svg"
   inkscape:version="0.92.1 r15371">
  <metadata
     id="metadata3735">
    <rdf:RDF>
      <cc:Work
         rdf:about="">
        <dc:format>image/svg+xml</dc:format>
        <dc:type
           rdf:resource="http://purl.org/dc/dcmitype/StillImage" />
      </cc:Work>
    </rdf:RDF>
  </metadata>
  <defs
     id="defs3733" />
  <sodipodi:namedview
     pagecolor="#ffffff"
     bordercolor="#666666"
     borderopacity="1"
     objecttolerance="10"
     gridtolerance="10"
     guidetolerance="10"
     inkscape:pageopacity="0"
     inkscape:pageshadow="2"
     inkscape:window-width="1858"
     inkscape:window-height="1057"
     id="namedview3731"
     showgrid="false"
     inkscape:zoom="8"
     inkscape:cx="46.493948"
     inkscape:cy="36.440493"
     inkscape:window-x="-8"
     inkscape:window-y="-8"
     inkscape:window-maximized="1"
     inkscape:current-layer="svg3371" />
  <path
     style="fill:#ffffff;stroke-width:3.33636212"
     d="m 19.671113,88.736295 c -0.481948,-0.746306 1.12745,-5.499954 3.576439,-10.563661 2.448995,-5.063711 4.924393,-12.727629 5.500885,-17.030933 0,0 -0.677335,-5.734638 1.048174,-7.824187 1.760676,-2.132141 8.053345,-3.063935 8.053345,-3.063935 6.966239,-2.650338 8.595581,-4.031223 12.070272,-10.229688 3.847409,-6.863356 4.579064,-7.380669 17.337413,-12.258361 7.326265,-2.800931 13.91975,-4.738148 14.65219,-4.304929 4.534344,2.681964 -1.85845,8.131115 -12.117023,10.328427 -6.171696,1.321931 -9.665969,4.187812 -16.399977,13.450684 -1.518099,2.088201 -6.294711,5.345357 -10.614691,7.238129 -6.067347,2.658368 -8.026648,4.29497 -8.611044,7.1928 C 30.334344,80.676094 23.140253,94.108288 19.671113,88.736295 Z M 35.574737,85.619189 C 34.10993,83.35092 35.499858,82.619315 55.298918,75.2371 c 9.999594,-3.728416 19.389062,-7.935016 20.865485,-9.347997 1.723259,-1.649216 2.713992,-4.701451 2.767044,-8.524699 0.126019,-9.080512 2.957586,-15.680779 6.960125,-16.223718 3.162551,-0.428993 3.319698,-0.110526 2.42022,4.904647 -3.169344,17.671142 -6.559866,25.198935 -13.23486,29.384626 -3.106054,1.947718 -34.231401,11.656642 -37.506621,11.699439 -0.556473,0.0074 -1.454484,-0.672325 -1.995574,-1.510209 z m 1.550264,-11.077422 c -1.331929,-2.062505 0.471158,-4.295644 10.974666,-13.592198 10.646332,-9.422966 21.375735,-16.359933 23.427165,-15.146558 2.750009,1.62657 -1.959028,7.520431 -8.895282,11.133401 -4.575395,2.383238 -8.233645,5.641997 -10.31799,9.191229 -1.785949,3.041133 -5.34796,6.461031 -7.969551,7.651605 -5.587707,2.537608 -6.04172,2.585563 -7.219008,0.762521 z"
     id="path3728"
     inkscape:connector-curvature="0" />
</svg>
